<?xml version="1.0" encoding="UTF-8" standalone="no"?>
<!-- Created with Inkscape (http://www.inkscape.org/) -->

<svg
   width="158.67168mm"
   height="200.61952mm"
   viewBox="0 0 158.67168 200.61952"
   version="1.1"
   id="svg5"
   inkscape:version="1.1.1 (3bf5ae0d25, 2021-09-20)"
   sodipodi:docname="teamPicks.svg"
   xmlns:inkscape="http://www.inkscape.org/namespaces/inkscape"
   xmlns:sodipodi="http://sodipodi.sourceforge.net/DTD/sodipodi-0.dtd"
   xmlns="http://www.w3.org/2000/svg"
   xmlns:svg="http://www.w3.org/2000/svg">
  <sodipodi:namedview
     id="namedview7"
     pagecolor="#ffffff"
     bordercolor="#999999"
     borderopacity="1"
     inkscape:pageshadow="0"
     inkscape:pageopacity="0"
     inkscape:pagecheckerboard="0"
     inkscape:document-units="mm"
     showgrid="false"
     fit-margin-top="0"
     fit-margin-left="0"
     fit-margin-right="0"
     fit-margin-bottom="0"
     inkscape:zoom="0.77682379"
     inkscape:cx="205.32327"
     inkscape:cy="633.99191"
     inkscape:window-width="1920"
     inkscape:window-height="1057"
     inkscape:window-x="3352"
     inkscape:window-y="-8"
     inkscape:window-maximized="1"
     inkscape:current-layer="layer1" />
  <defs
     id="defs2" />
  <g
     inkscape:label="Layer 1"
     inkscape:groupmode="layer"
     id="layer1"
     transform="translate(-50.771956,18.907235)">
    <g
       clip-path="url(#cl_5)"
       id="g1132"
       transform="matrix(0.26458333,0,0,0.26458333,-123.8922,-82.446393)">
      <path
         fill="#b51230"
         transform="matrix(1,0,0,-1,801.303,895.526)"
         d="M 3.42894,102.868 -69.7218,-70.1028 12.5728,-25.1456 21.7253,-102.869 69.7218,81.5327 Z"
         fill-rule="evenodd"
         id="path1066" />
      <path
         fill="#e02547"
         transform="matrix(1,0,0,-1,879.407,903.527)"
         d="m -41.1473,98.6774 -15.231,-193.5448 54.23568,82.0025 45.37972,-82.0025 13.15,172.9711 z"
         fill-rule="evenodd"
         id="path1068" />
      <path
         fill="#eb1e43"
         transform="matrix(1,0,0,-1,960,540)"
         d="m -9.42323,299.852 -18.80927,-1.183 -18.6978,-2.363 -18.5127,-3.531 -18.2543,-4.687 -17.9237,-5.824 -17.523,-6.938 -17.053,-8.024 -16.515,-9.079 -15.913,-10.099 -15.247,-11.077 -14.522,-12.014 -13.738,-12.901 -12.901,-13.738 -12.014,-14.522 -11.077,-15.247 -10.099,-15.913 -9.079,-16.515 -8.024,-17.053 -6.938,-17.523 -5.824,-17.9237 -4.687,-18.2543 -3.531,-18.5127 -2.363,-18.6978 -1.183,-18.80927 V -9.42323 l 1.183,-18.80927 2.363,-18.6978 3.531,-18.5127 4.687,-18.2543 5.824,-17.9237 6.938,-17.523 8.024,-17.053 9.079,-16.515 10.099,-15.913 11.077,-15.247 12.014,-14.522 12.901,-13.738 13.738,-12.901 14.522,-12.014 15.247,-11.077 15.913,-10.099 16.515,-9.079 17.053,-8.024 17.523,-6.938 17.9237,-5.824 18.2543,-4.687 18.5127,-3.531 18.6978,-2.363 18.80927,-1.183 H 9.42323 l 18.80927,1.183 18.6978,2.363 18.5127,3.531 18.2543,4.687 17.9237,5.824 17.523,6.938 17.053,8.024 16.515,9.079 15.913,10.099 15.247,11.077 14.522,12.014 13.738,12.901 12.901,13.738 12.014,14.522 11.077,15.247 10.099,15.913 9.079,16.515 8.024,17.053 6.938,17.523 5.824,17.9237 4.687,18.2543 3.531,18.5127 2.363,18.6978 1.183,18.80927 V 9.42323 l -1.183,18.80927 -2.363,18.6978 -3.531,18.5127 -4.687,18.2543 -5.824,17.9237 -6.938,17.523 -8.024,17.053 -9.079,16.515 -10.099,15.913 -11.077,15.247 -12.014,14.522 -12.901,13.738 -13.738,12.901 -14.522,12.014 -15.247,11.077 -15.913,10.099 -16.515,9.079 -17.053,8.024 -17.523,6.938 -17.9237,5.824 -18.2543,4.687 -18.5127,3.531 -18.6978,2.363 -18.80927,1.183 z m 17.27592,-49.975 15.67441,-0.987 15.5815,-1.968 15.4272,-2.943 15.212,-3.906 14.9367,-4.853 14.6025,-5.781 14.211,-6.687 13.762,-7.566 13.261,-8.416 12.706,-9.231 12.101,-10.011 11.449,-10.751 10.751,-11.449 10.011,-12.101 9.231,-12.706 8.416,-13.261 7.566,-13.762 6.687,-14.211 5.781,-14.6025 4.853,-14.9367 3.906,-15.212 2.943,-15.4272 1.968,-15.5815 0.987,-15.67441 V -7.85269 l -0.987,-15.67441 -1.968,-15.5815 -2.943,-15.4272 -3.906,-15.212 -4.853,-14.9367 -5.781,-14.6025 -6.687,-14.211 -7.566,-13.762 -8.416,-13.261 -9.231,-12.706 -10.011,-12.101 -10.751,-11.449 -11.449,-10.751 -12.101,-10.011 -12.706,-9.231 -13.261,-8.416 -13.762,-7.566 -14.211,-6.687 -14.6025,-5.781 -14.9367,-4.853 -15.212,-3.906 -15.4272,-2.943 -15.5815,-1.968 -15.67441,-0.987 H -7.85269 l -15.67441,0.987 -15.5815,1.968 -15.4272,2.943 -15.212,3.906 -14.9367,4.853 -14.6025,5.781 -14.211,6.687 -13.762,7.566 -13.261,8.416 -12.706,9.231 -12.101,10.011 -11.449,10.751 -10.751,11.449 -10.011,12.101 -9.231,12.706 -8.416,13.261 -7.566,13.762 -6.687,14.211 -5.781,14.6025 -4.853,14.9367 -3.906,15.212 -2.943,15.4272 -1.968,15.5815 -0.987,15.67441 V 7.85269 l 0.987,15.67441 1.968,15.5815 2.943,15.4272 3.906,15.212 4.853,14.9367 5.781,14.6025 6.687,14.211 7.566,13.762 8.416,13.261 9.231,12.706 10.011,12.101 10.751,11.449 11.449,10.751 12.101,10.011 12.706,9.231 13.261,8.416 13.762,7.566 14.211,6.687 14.6025,5.781 14.9367,4.853 15.212,3.906 15.4272,2.943 15.5815,1.968 15.67441,0.987 z"
         id="path1070" />
      <path
         fill="#ff365a"
         transform="matrix(1,0,0,-1,960,540)"
         d="M 0,240 C -132.548,240 -240,132.548 -240,0 -240,-132.548 -132.548,-240 0,-240 132.548,-240 240,-132.548 240,0 240,132.548 132.548,240 0,240 Z"
         id="path1072" />
      <clipPath
         id="cl_6">
        <path
           d="m 931.768,241.331 18.809,-1.183 h 18.846 l 18.809,1.183 18.698,2.363 18.51,3.531 18.26,4.687 17.92,5.824 17.52,6.938 17.06,8.024 16.51,9.079 15.91,10.099 15.25,11.077 14.52,12.014 13.74,12.901 12.9,13.738 12.02,14.522 11.07,15.247 10.1,15.913 9.08,16.515 8.03,17.053 6.93,17.523 5.83,17.924 4.69,18.254 3.53,18.513 2.36,18.698 1.18,18.809 v 18.846 l -1.18,18.809 -2.36,18.698 -3.53,18.513 -4.69,18.254 -5.83,17.924 -6.93,17.523 -8.03,17.053 -9.08,16.515 -10.1,15.913 -11.07,15.247 -12.02,14.522 -12.9,13.738 -13.74,12.901 -14.52,12.014 -15.25,11.077 -15.91,10.099 -16.51,9.079 -17.06,8.024 -17.52,6.938 -17.92,5.824 -18.26,4.687 -18.51,3.532 -18.698,2.362 -18.809,1.183 h -18.846 l -18.809,-1.183 -18.698,-2.362 -18.513,-3.532 -18.254,-4.687 -17.924,-5.824 -17.523,-6.938 -17.053,-8.024 -16.515,-9.079 -15.913,-10.099 -15.247,-11.077 -14.522,-12.014 -13.738,-12.901 -12.901,-13.738 -12.014,-14.522 -11.077,-15.247 -10.099,-15.913 -9.079,-16.515 -8.024,-17.053 -6.938,-17.523 -5.824,-17.924 -4.687,-18.254 -3.532,-18.513 -2.362,-18.698 -1.183,-18.809 v -18.846 l 1.183,-18.809 2.362,-18.698 3.532,-18.513 4.687,-18.254 5.824,-17.924 6.938,-17.523 8.024,-17.053 9.079,-16.515 10.099,-15.913 11.077,-15.247 12.014,-14.522 12.901,-13.738 13.738,-12.901 14.522,-12.014 15.247,-11.077 15.913,-10.099 16.515,-9.079 17.053,-8.024 17.523,-6.938 17.924,-5.824 18.254,-4.687 18.513,-3.531 z m 51.759,49.778 -15.674,-0.986 h -15.706 l -15.674,0.987 -15.582,1.968 -15.427,2.943 -15.212,3.906 -14.936,4.853 -14.603,5.781 -14.211,6.687 -13.762,7.567 -13.261,8.415 -12.706,9.231 -12.101,10.011 -11.449,10.751 -10.751,11.449 -10.011,12.101 -9.231,12.706 -8.415,13.261 -7.567,13.762 -6.687,14.211 -5.781,14.603 -4.853,14.936 -3.906,15.212 -2.943,15.427 -1.969,15.582 -0.986,15.674 v 15.706 l 0.986,15.674 1.969,15.582 2.943,15.427 3.906,15.212 4.853,14.936 5.781,14.603 6.687,14.211 7.567,13.762 8.415,13.261 9.231,12.706 10.011,12.101 10.751,11.449 11.449,10.751 12.101,10.011 12.706,9.231 13.261,8.415 13.762,7.567 14.211,6.687 14.603,5.781 14.936,4.853 15.212,3.906 15.427,2.943 15.582,1.969 15.674,0.986 h 15.706 l 15.674,-0.986 15.582,-1.969 15.431,-2.943 15.21,-3.906 14.93,-4.853 14.61,-5.781 14.21,-6.687 13.76,-7.567 13.26,-8.415 12.71,-9.231 12.1,-10.011 11.45,-10.751 10.75,-11.449 10.01,-12.101 9.23,-12.706 8.42,-13.261 7.56,-13.762 6.69,-14.211 5.78,-14.603 4.85,-14.936 3.91,-15.212 2.94,-15.427 1.97,-15.582 0.99,-15.674 v -15.706 l -0.99,-15.674 -1.97,-15.582 -2.94,-15.427 -3.91,-15.212 -4.85,-14.936 -5.78,-14.603 -6.69,-14.211 -7.56,-13.762 -8.42,-13.261 -9.23,-12.706 -10.01,-12.101 -10.75,-11.449 -11.45,-10.751 -12.1,-10.011 -12.71,-9.231 -13.26,-8.415 -13.76,-7.567 -14.21,-6.687 -14.61,-5.781 -14.93,-4.853 -15.21,-3.906 -15.431,-2.943 z"
           clip-rule="evenodd"
           id="path1074" />
      </clipPath>
      <g
         clip-path="url(#cl_6)"
         id="g1093">
        <path
           fill="#fdffff"
           fill-opacity="0.14902"
           transform="matrix(-0.866025,0.5,0.5,0.866025,860,366.795)"
           d="M 0,200 -60.6218,-100 H 60.6218 Z"
           id="path1077" />
        <path
           fill="#fdffff"
           fill-opacity="0.14902"
           transform="matrix(-0.965926,-0.258819,-0.258819,0.965926,1011.76,346.815)"
           d="M 0,200 -60.6218,-100 H 60.6218 Z"
           id="path1079" />
        <path
           fill="#fdffff"
           fill-opacity="0.14902"
           transform="matrix(-0.5,-0.866025,-0.866025,0.5,1133.21,440)"
           d="M 0,200 -60.6218,-100 H 60.6218 Z"
           id="path1081" />
        <path
           fill="#fdffff"
           fill-opacity="0.14902"
           transform="matrix(0.258819,-0.965926,-0.965926,-0.258819,1153.19,591.764)"
           d="M 0,200 -60.6218,-100 H 60.6218 Z"
           id="path1083" />
        <path
           fill="#fdffff"
           fill-opacity="0.14902"
           transform="matrix(0.866025,-0.5,-0.5,-0.866025,1060,713.205)"
           d="M 0,200 -60.6218,-100 H 60.6218 Z"
           id="path1085" />
        <path
           fill="#fdffff"
           fill-opacity="0.14902"
           transform="matrix(0.965926,0.258819,0.258819,-0.965926,908.236,733.185)"
           d="M -3.70892e-6,200 -60.6218,-100 H 60.6218 Z"
           id="path1087" />
        <path
           fill="#fdffff"
           fill-opacity="0.14902"
           transform="matrix(0.5,0.866025,0.866025,-0.5,786.795,640)"
           d="M 0,200 -60.6218,-100 H 60.6218 Z"
           id="path1089" />
        <path
           fill="#fdffff"
           fill-opacity="0.14902"
           transform="matrix(-0.258819,0.965926,0.965926,0.258819,766.815,488.236)"
           d="M 4.72044e-6,200 -60.6218,-100 H 60.6218 Z"
           id="path1091" />
      </g>
      <clipPath
         id="cl_7">
        <path
           d="m 720,540 c 0,-132.548 107.452,-240 240,-240 132.55,0 240,107.452 240,240 0,132.548 -107.45,240 -240,240 C 827.452,780 720,672.548 720,540 Z"
           clip-rule="evenodd"
           id="path1095" />
      </clipPath>
      <g
         clip-path="url(#cl_7)"
         id="g1114">
        <path
           fill="#fdffff"
           fill-opacity="0.14902"
           transform="matrix(0.139173,0.990268,0.990268,-0.139173,761.946,567.835)"
           d="M 0,200 -60.6218,-100 H 60.6218 Z"
           id="path1098" />
        <path
           fill="#fdffff"
           fill-opacity="0.14902"
           transform="matrix(-0.601815,0.798635,0.798635,0.601815,800.273,419.637)"
           d="M 0,200 -60.6218,-100 H 60.6218 Z"
           id="path1100" />
        <path
           fill="#fdffff"
           fill-opacity="0.14902"
           transform="matrix(-0.990268,0.139173,0.139173,0.990268,932.165,341.946)"
           d="M 0,200 -60.6218,-100 H 60.6218 Z"
           id="path1102" />
        <path
           fill="#fdffff"
           fill-opacity="0.14902"
           transform="matrix(-0.798635,-0.601815,-0.601815,0.798635,1080.36,380.273)"
           d="M 0,200 -60.6218,-100 H 60.6218 Z"
           id="path1104" />
        <path
           fill="#fdffff"
           fill-opacity="0.14902"
           transform="matrix(-0.139173,-0.990268,-0.990268,0.139173,1158.05,512.165)"
           d="M 0,200 -60.6218,-100 H 60.6218 Z"
           id="path1106" />
        <path
           fill="#fdffff"
           fill-opacity="0.14902"
           transform="matrix(0.601815,-0.798635,-0.798635,-0.601815,1119.73,660.363)"
           d="M -3.70892e-6,200 -60.6218,-100 H 60.6218 Z"
           id="path1108" />
        <path
           fill="#fdffff"
           fill-opacity="0.14902"
           transform="matrix(0.990268,-0.139173,-0.139173,-0.990268,987.835,738.054)"
           d="M 0,200 -60.6218,-100 H 60.6218 Z"
           id="path1110" />
        <path
           fill="#fdffff"
           fill-opacity="0.14902"
           transform="matrix(0.798635,0.601815,0.601815,-0.798635,839.637,699.727)"
           d="M 4.72044e-6,200 -60.6218,-100 H 60.6218 Z"
           id="path1112" />
      </g>
      <path
         fill="#fdffff"
         transform="matrix(0.996951,0.0780368,0.0780368,-0.996951,780.584,560.562)"
         d="m 14.112,62.352 c 0.48,0.096 1.8,0.144 3.96,0.144 8.736,0 15.648,-0.408 20.736,-1.224 2.64,-0.48 4.596,-1.032 5.868,-1.656 1.272,-0.624 2.268,-1.56 2.988,-2.808 0.336,-0.528 0.504,-1.176 0.504,-1.944 0,-1.44 -0.648,-2.808 -1.944,-4.104 -0.528,-0.528 -0.984,-0.876 -1.368,-1.044 -0.384,-0.168 -1.008,-0.252 -1.872,-0.252 -0.816,0 -2.208,0.072 -4.176,0.216 l -5.904,0.36 -0.36,-21.096 C 32.352,17.664 32.076,10.812 31.716,8.388 c -0.36,-2.424 -1.26,-4.044 -2.7,-4.86 -0.96,-0.48 -1.944,-0.72 -2.952,-0.72 -1.392,0 -2.448,0.36 -3.168,1.08 -1.008,0.912 -1.68,1.932 -2.016,3.06 -0.336,1.128 -0.504,3.492 -0.504,7.092 0,2.496 0.12,7.704 0.36,15.624 0.336,10.656 0.504,17.304 0.504,19.944 l -0.072,1.296 H 20.88 c -1.248,0 -3.216,-0.144 -5.904,-0.432 -1.392,-0.144 -2.64,-0.216 -3.744,-0.216 -2.68799,0 -4.56,0.432 -5.616,1.296 -1.056,0.864 -1.584,2.304 -1.584,4.32 0,2.016 0.66,3.432 1.97999,4.248 1.32001,0.816 4.02001,1.56 8.10001,2.232 z"
         id="path1116" />
      <path
         fill="#fdffff"
         transform="matrix(0.996951,0.0780368,0.0780368,-0.996951,832.625,564.635)"
         d="m 21.6,32.544 c 0,1.872 -0.144,2.808 -0.432,2.808 -0.384,0 -0.996,-0.492 -1.836,-1.476 -0.84,-0.984 -1.5,-1.98 -1.98,-2.988 -0.384,-0.768 -0.576,-1.272 -0.576,-1.512 0,-0.24 0.456,-0.648 1.368,-1.224 0.768,-0.384 1.248,-0.576 1.44,-0.576 0.288,0 0.648,0.336 1.08,1.008 0.624,0.912 0.936,2.232 0.936,3.96 z M 17.568,46.44 c 1.488,0.48 2.928,0.72 4.32,0.72 2.64,0 5.136,-1.176 7.488,-3.528 2.736,-2.736 4.104,-6.312 4.104,-10.728 0,-5.088 -1.776,-9.624 -5.328,-13.608 -2.352,-2.64 -5.112,-3.96 -8.28,-3.96 -1.488,0 -2.232,-0.216 -2.232,-0.648 0,-0.288 0.408,-0.72 1.224,-1.296 0.768,-0.576 1.584,-0.864 2.448,-0.864 1.056,0 2.424,0.528 4.104,1.584 2.304,1.392 4.056,2.088 5.256,2.088 0.672,0 1.44,-0.192 2.304,-0.576 1.056,-0.576 1.812,-1.248 2.268,-2.016 0.456,-0.768 0.684,-1.8 0.684,-3.096 C 35.928,9.696 35.772,9 35.46,8.424 35.148,7.848 34.512,7.104 33.552,6.192 29.904,2.688 25.848,0.935999 21.384,0.936001 c -2.208,0 -4.296,0.455999 -6.264,1.367999 -3.504,1.632 -6.252,4.2 -8.244,7.704 -1.992,3.504 -2.988,7.56 -2.988,12.168 0,5.472 1.356,10.596 4.068,15.372 2.712,4.776 5.916,7.74 9.612,8.892 z"
         id="path1118" />
      <path
         fill="#fdffff"
         transform="matrix(0.996951,0.0780368,0.0780368,-0.996951,872.32,567.742)"
         d="m 20.628,29.16 c 1.176,2.976 1.764,4.656 1.764,5.04 0,0.384 -0.336,0.576 -1.008,0.576 -1.008,0 -1.992,-0.312 -2.952,-0.936 -1.92,-1.392 -2.88,-4.176 -2.88,-8.352 0,-3.072 0.288,-4.608 0.864,-4.608 0.336,0 0.792,0.576 1.368,1.728 0.72,1.392 1.668,3.576 2.844,6.552 z m -4.356,16.488 c 1.92,0.672 3.6,1.008 5.04,1.008 1.728,0 3.576,-0.456 5.544,-1.368 1.968,-0.912 3.264,-1.368 3.888,-1.368 0.912,0 1.86,-0.384 2.844,-1.152 0.984,-0.768 1.692,-1.704 2.124,-2.808 0.48,-1.104 0.72,-3.696 0.72,-7.776 0,-3.312 -0.024,-6.192 -0.072,-8.64 C 36.168,14.088 35.856,8.808 35.424,7.704 35.088,6.792 34.404,6.024 33.372,5.4 32.34,4.776 31.272,4.464 30.168,4.464 29.112,4.464 28.056,4.968 27,5.976 25.944,6.984 25.296,8.088 25.056,9.288 L 24.624,11.232 22.392,9 C 20.28,6.888 18.072,5.832 15.768,5.832 c -3.264,0 -6.06,1.896 -8.388,5.688 -2.328,3.792 -3.492,8.568 -3.492,14.328 0,4.944 1.08,9.144 3.24,12.6 2.16,3.456 5.208,5.856 9.144,7.2 z"
         id="path1120" />
      <path
         fill="#fdffff"
         transform="matrix(0.996951,0.0780368,0.0780368,-0.996951,912.301,570.872)"
         d="m 40.248,42.912 c 1.536,0.96 2.904,1.44 4.104,1.44 0.624,0 1.104,-0.024 1.44,-0.072 2.544,-0.192 4.62,-1.176 6.228,-2.952 1.608,-1.776 2.94,-4.632 3.996,-8.568 0.864,-3.216 1.296,-8.928 1.296,-17.136 0,-3.504 -0.144,-5.76 -0.432,-6.768 -0.432,-1.344 -1.188,-2.424 -2.268,-3.24 -1.08,-0.816 -2.22,-1.224 -3.42,-1.224 -1.44,0 -2.664,0.576 -3.672,1.728 -0.624,0.768 -1.02,1.704 -1.188,2.808 -0.168,1.104 -0.348,4.032 -0.54,8.784 -0.192,6.432 -0.48,10.296 -0.864,11.592 l -0.504,1.728 -1.44,-2.88 c -1.056,-2.016 -2.16,-4.704 -3.312,-8.064 -1.152,-3.36 -1.728,-5.544 -1.728,-6.552 0,-2.112 -0.588,-3.852 -1.764,-5.22 -1.176,-1.368 -2.556,-2.052 -4.14,-2.052 -1.392,0 -2.688,0.528 -3.888,1.584 -0.912,0.768 -1.44,1.464 -1.584,2.088 -0.144,0.624 -0.264,2.256 -0.36,4.896 -0.048,3.552 -0.468,6.996 -1.26,10.332 -0.792,3.336 -1.572,5.004 -2.34,5.004 -0.624,0 -1.656,-2.172 -3.096,-6.516 -1.44,-4.344 -2.52,-8.508 -3.24,-12.492 C 15.648,7.656 15.108,5.388 14.652,4.356 14.196,3.324 13.392,2.496 12.24,1.872 11.328,1.344 10.464,1.08 9.648,1.08 8.88,1.08 8.04,1.344 7.128,1.872 6.408,2.256 5.868,2.64 5.508,3.024 5.148,3.408 4.824,3.9 4.536,4.5 4.248,5.1 4.056,6.156 3.96,7.668 3.864,9.18 3.792,10.836 3.744,12.636 c -0.048,1.8 -0.072,4.5 -0.072,8.1 0,8.016 0.156,13.272 0.468,15.768 0.312,2.496 1.068,4.2 2.268,5.112 0.96,0.768 2.088,1.152 3.384,1.152 1.488,0 2.76,-0.48 3.816,-1.44 l 1.584,-1.44 1.44,1.152 c 1.728,1.344 3.72,2.016 5.976,2.016 0.864,0 1.656,-0.096 2.376,-0.288 1.584,-0.48 3.432,-1.8 5.544,-3.96 l 3.24,-3.312 1.944,2.88 c 1.296,1.92 2.808,3.432 4.536,4.536 z"
         id="path1122" />
      <path
         fill="#fdffff"
         transform="matrix(0.996951,0.0780368,0.0780368,-0.996951,991.116,577.041)"
         d="m 21.672,51.408 c -1.344,1.056 -2.448,1.656 -3.312,1.8 -0.384,0.096 -0.624,0.144 -0.72,0.144 -0.528,0 -0.888,-0.696 -1.08,-2.088 -0.192,-1.392 -0.48,-5.28 -0.864,-11.664 -0.336,-5.52 -0.504,-9.096 -0.504,-10.728 0,-0.816 0.048,-1.32 0.144,-1.512 0.096,-0.192 0.264,-0.288 0.504,-0.288 h 0.144 c 1.392,0 3.288,0.912 5.688,2.736 2.4,1.824 4.056,3.6 4.968,5.328 0.672,1.344 1.008,2.88 1.008,4.608 0,2.112 -0.528,4.236 -1.584,6.372 -1.056,2.136 -2.52,3.9 -4.392,5.292 z M 10.224,64.584 c 1.488,0.528 3.12,0.792 4.896,0.792 2.544,0 5.28,-0.528 8.208,-1.584 1.92,-0.72 4.14,-2.196 6.66,-4.428 2.52,-2.232 4.38,-4.332 5.58,-6.3 2.4,-4.08 3.6,-8.736 3.6,-13.968 0,-2.256 -0.288,-4.296 -0.864,-6.12 -1.44,-4.224 -4.236,-8.064 -8.388,-11.52 C 25.764,18 21.648,16.08 17.568,15.696 L 14.544,15.48 v -2.52 c 0,-1.776 0.192,-2.976 0.576,-3.6 0.288,-0.528 0.432,-1.2 0.432,-2.016 0,-2.352 -0.624,-4.272 -1.872,-5.76 C 12.672,0.528 11.448,0 10.008,0 8.712,0 7.512,0.42 6.408,1.26 5.304,2.1 4.56,3.216 4.176,4.608 3.792,6.144 3.6,10.776 3.6,18.504 c 0,10.416 0.288,19.68 0.864,27.792 0.24,3.552 0.444,6.18 0.612,7.884 0.168,1.704 0.36,3.312 0.576,4.824 0.216,1.512 0.54,2.544 0.972,3.096 0.432,0.552 0.888,1.02 1.368,1.404 0.48,0.384 1.224,0.744 2.232,1.08 z"
         id="path1124" />
      <path
         fill="#fdffff"
         transform="matrix(0.996951,0.0780368,0.0780368,-0.996951,1034.11,580.407)"
         d="m 7.848,58.32 c 0.576,0.096 1.032,0.144 1.368,0.144 1.584,0 2.916,-0.576 3.996,-1.728 1.08,-1.152 1.62,-2.496 1.62,-4.032 0,-1.344 -0.432,-2.52 -1.296,-3.528 C 12.384,47.832 10.968,47.16 9.288,47.16 7.032,47.16 5.4,48.168 4.392,50.184 3.96,51 3.744,51.864 3.744,52.776 c 0,1.296 0.384,2.472 1.152,3.528 0.768,1.056 1.752,1.728 2.952,2.016 z M 7.632,39.744 c 0.768,0.432 1.368,0.648 1.8,0.648 0.336,0 1.152,-0.264 2.448,-0.792 1.536,-0.624 2.52,-1.644 2.952,-3.06 0.432,-1.416 0.648,-4.5 0.648,-9.252 0,-0.528 -0.012,-1.488 -0.036,-2.88 C 15.42,23.016 15.408,21.912 15.408,21.096 15.312,15.288 15.204,11.472 15.084,9.648 14.964,7.824 14.688,6.528 14.256,5.76 13.632,4.608 12.924,3.816 12.132,3.384 11.34,2.952 10.224,2.736 8.784,2.736 7.296,2.736 6.048,3.312 5.04,4.464 L 3.6,6.192 3.888,21.168 c 0.096,4.464 0.18,7.668 0.252,9.612 0.072,1.944 0.264,3.624 0.576,5.04 0.312,1.416 0.648,2.304 1.008,2.664 0.36,0.36 0.996,0.78 1.908,1.26 z"
         id="path1126" />
      <path
         fill="#fdffff"
         transform="matrix(0.996951,0.0780368,0.0780368,-0.996951,1053.13,581.896)"
         d="m 19.8,47.016 c 1.392,0.528 3.24,0.792 5.544,0.792 h 0.288 c 3.312,0 6.156,-0.9 8.532,-2.7 2.376,-1.8 3.564,-3.852 3.564,-6.156 0,-0.768 -0.144,-1.512 -0.432,-2.232 -0.864,-2.112 -2.424,-3.168 -4.68,-3.168 -1.488,0 -2.952,0.504 -4.392,1.512 -1.296,0.864 -2.304,1.296 -3.024,1.296 -0.864,0 -2.112,-0.528 -3.744,-1.584 -3.936,-2.448 -5.904,-6.072 -5.904,-10.872 0,-0.96 0.12,-2.04 0.36,-3.24 0.336,-1.536 0.948,-3 1.836,-4.392 0.888,-1.392 1.644,-2.088 2.268,-2.088 0.48,0 1.776,0.576 3.888,1.728 2.112,1.104 3.888,1.656 5.328,1.656 1.344,0 2.544,-0.456 3.6,-1.368 1.152,-1.008 1.728,-2.208 1.728,-3.6 0,-1.584 -0.672,-3.048 -2.016,-4.392 C 29.52,5.04 25.704,3.264 21.096,2.88 20.568,2.832 19.896,2.808 19.08,2.808 c -1.488,0 -3.048,0.408 -4.68,1.224 -3.168,1.584 -5.712,4.224 -7.632,7.92 -1.92,3.696 -2.88,7.656 -2.88,11.88 0,1.968 0.264,4.008 0.792,6.12 1.008,3.84 2.904,7.32 5.688,10.44 2.784,3.12 5.928,5.328 9.432,6.624 z"
         id="path1128" />
      <path
         fill="#fdffff"
         transform="matrix(0.996951,0.0780368,0.0780368,-0.996951,1094.62,585.143)"
         d="m 8.71201,67.032 c 0.91198,0.528 1.91999,0.792 3.02399,0.792 2.208,0 3.792,-1.032 4.752,-3.096 0.384,-0.768 0.576,-1.776 0.576,-3.024 0,-1.344 -0.168,-3.696 -0.504,-7.056 -0.144,-1.344 -0.3,-2.844 -0.468,-4.5 -0.168,-1.656 -0.324,-3.228 -0.468,-4.716 -0.144,-1.488 -0.24,-2.448 -0.288,-2.88 l -0.288,-3.888 4.32,3.744 c 2.352,2.112 4.152,3.54 5.4,4.284 1.248,0.744 2.472,1.116 3.672,1.116 0.48,0 0.864,-0.024 1.152,-0.072 1.488,-0.192 2.676,-0.78 3.564,-1.764 0.888,-0.984 1.332,-2.196 1.332,-3.636 0,-0.912 -0.156,-1.632 -0.468,-2.16 C 33.708,39.648 33,38.904 31.896,37.944 29.688,36.072 27.864,34.44 26.424,33.048 l -2.736,-2.592 3.6,-5.688 c 2.64,-4.272 4.2,-6.768 4.68,-7.488 1.008,-1.392 1.872,-2.88 2.592,-4.464 0.72,-1.584 1.08,-2.76 1.08,-3.528 0,-1.632 -0.552,-3.012 -1.656,-4.14 -1.104,-1.128 -2.4,-1.692 -3.888,-1.692 -0.24,0 -0.648,0.048 -1.224,0.144 -0.96,0.24 -1.848,0.804 -2.664,1.692 -0.816,0.888 -2.208,2.892 -4.176,6.012 -0.336,0.528 -0.852,1.344 -1.548,2.448 -0.696,1.104 -1.296,2.052 -1.8,2.844 -0.504,0.792 -0.9,1.404 -1.188,1.836 l -1.872,2.88 0.36,-7.272 0.432,-7.272 -1.8,-1.656 C 13.464,3.96 12.192,3.384 10.8,3.384 c -2.112,0 -3.72,1.2 -4.824,3.6 -1.48799,2.976 -2.232,10.584 -2.232,22.824 0,3.168 0.02401,5.616 0.07199,7.344 C 4.15199,51.84 5.064,61.008 6.552,64.656 7.08,65.76 7.8,66.552 8.71201,67.032 Z"
         id="path1130" />
    </g>
  </g>
</svg>
